# xmcd
#
# Track frame offsets:
#	150
#	12921
#	19787
#	32246
#	41823
#	55231
#	66802
#	87092
#	97761
#	115018
#	129609
#	143142
#
# Disc length: 2152 seconds
# Revision: 0
# Processed by: cddbd v1.5.2PL0 Copyright (c) Steve Scherf et al.
# Submitted via: dBpowerAMP V12.0
#
DISCID=9808660c
DTITLE=Delaney Davidson - Lucky Guy
DYEAR=2015
DGENRE=Folk-Rock
TTITLE0=Broken Wheel
TTITLE1=Somethings Wrong
TTITLE2=You Don't Want me Around
TTITLE3=Who Will Carry You
TTITLE4=Eastbound
TTITLE5=Tell it to You
TTITLE6=Wreck on The Highway
TTITLE7=Gimmie Your Hands
TTITLE8=Five Bucks
TTITLE9=Black bo
TTITLE10=Show me How
TTITLE11=Wait
EXTD=
EXTT0=
EXTT1=
EXTT2=
EXTT3=
EXTT4=
EXTT5=
EXTT6=
EXTT7=
EXTT8=
EXTT9=
EXTT10=
EXTT11=
PLAYORDER=
